<svg xmlns="http://www.w3.org/2000/svg" viewBox="0 0 40 40" fill="none">
  <rect width="40" height="40" rx="10" fill="#5041c3"/>
  <path d="M19.7824 5.00127C23.8381 4.94968 27.6489 6.47695 30.5308 9.31784V9.31744C33.4126 12.1591 35 15.953 35 19.9998C35 28.2711 28.2712 35 20.0001 35C14.8871 35 10.9703 31.9812 10.8062 31.8528L13.0857 29.3844C13.8733 29.9255 16.6629 31.6636 20.0005 31.6636C26.432 31.6636 31.664 26.431 31.664 19.9998C31.664 16.8531 30.4296 13.9033 28.1887 11.6936C25.9482 9.48479 22.9799 8.29465 19.8303 8.3373C13.619 8.42545 8.46455 13.5495 8.33986 19.759C8.30817 21.3398 8.59129 22.8891 9.16726 24.3298L13.7486 19.4198C15.6264 17.4075 18.2824 16.2531 21.0351 16.2531H26.4738V19.59H21.0351C19.204 19.59 17.4371 20.3577 16.1877 21.6965L8.53078 29.9023L7.37114 28.0968C5.76184 25.5914 4.94297 22.6851 5.00309 19.6923C5.08107 15.8067 6.65707 12.1433 9.44022 9.37674C12.2234 6.61019 15.8961 5.05651 19.7824 5.00127Z" fill="#FFFFFF"/>
  <path d="M16.1329 26.0837L19.2138 22.7469H23.9527V26.0837H16.1329Z" fill="#FFFFFF"/>
</svg>
