<svg width="117" height="40" viewBox="0 0 117 40" fill="none" xmlns="http://www.w3.org/2000/svg">
<path d="M19.7824 5.00127C23.8381 4.94968 27.6489 6.47695 30.5308 9.31784V9.31744C33.4126 12.1591 35 15.953 35 19.9998C35 28.2711 28.2712 35 20.0001 35C14.8871 35 10.9703 31.9812 10.8062 31.8528L13.0857 29.3844C13.8733 29.9255 16.6629 31.6636 20.0005 31.6636C26.432 31.6636 31.664 26.431 31.664 19.9998C31.664 16.8531 30.4296 13.9033 28.1887 11.6936C25.9482 9.48479 22.9799 8.29465 19.8303 8.3373C13.619 8.42545 8.46455 13.5495 8.33986 19.759C8.30817 21.3398 8.59129 22.8891 9.16726 24.3298L13.7486 19.4198C15.6264 17.4075 18.2824 16.2531 21.0351 16.2531H26.4738V19.59H21.0351C19.204 19.59 17.4371 20.3577 16.1877 21.6965L8.53078 29.9023L7.37114 28.0968C5.76184 25.5914 4.94297 22.6851 5.00309 19.6923C5.08107 15.8067 6.65707 12.1433 9.44022 9.37674C12.2234 6.61019 15.8961 5.05651 19.7824 5.00127Z" fill="#8E93F2"/>
<path d="M16.1329 26.0837L19.2138 22.7469H23.9527V26.0837H16.1329Z" fill="#8E93F2"/>
<path d="M54.6579 11.68C52.4349 11.5073 51.3231 12.4253 51.3231 14.4339V14.5959H54.6579V18.6132H51.3231V30.7964H47.2647V18.6132H45V14.5959H47.2647V14.4339C47.2647 12.1444 47.8832 10.4059 49.121 9.21773C50.3581 8.02958 52.2039 7.51146 54.6572 7.66267V11.68H54.6579Z" fill="#FFFFFF"/>
<path d="M69.1917 28.7712C67.5762 30.4238 65.6051 31.25 63.2777 31.25C60.9504 31.25 58.9835 30.4238 57.3791 28.7712C55.7746 27.1187 54.9724 25.0936 54.9724 22.6965C54.9724 20.2994 55.7746 18.2736 57.3791 16.6211C58.9835 14.9685 60.9497 14.1423 63.2777 14.1423C65.6058 14.1423 67.5769 14.9685 69.1917 16.6211C70.8066 18.2736 71.6137 20.2987 71.6137 22.6965C71.6137 25.0943 70.8059 27.1195 69.1917 28.7712ZM60.2414 25.9034C61.0485 26.7461 62.0602 27.1675 63.277 27.1675C64.4939 27.1675 65.5104 26.7461 66.3287 25.9034C67.1469 25.0613 67.5553 23.9921 67.5553 22.6958C67.5553 21.3994 67.1462 20.3303 66.3287 19.4882C65.5111 18.6462 64.4932 18.2248 63.277 18.2248C62.0609 18.2248 61.0485 18.6462 60.2414 19.4882C59.4336 20.331 59.0301 21.4002 59.0301 22.6958C59.0301 23.9914 59.4336 25.0613 60.2414 25.9034Z" fill="#FFFFFF"/>
<path d="M87.7519 28.7712C86.1364 30.4238 84.1653 31.25 81.8379 31.25C79.5106 31.25 77.5437 30.4238 75.9393 28.7712C74.3348 27.1187 73.5326 25.0936 73.5326 22.6965C73.5326 20.2994 74.3348 18.2736 75.9393 16.6211C77.5437 14.9685 79.5099 14.1423 81.8379 14.1423C84.166 14.1423 86.1371 14.9685 87.7519 16.6211C89.3668 18.2736 90.1739 20.2987 90.1739 22.6965C90.1739 25.0943 89.3661 27.1195 87.7519 28.7712ZM78.8016 25.9034C79.6087 26.7461 80.6204 27.1675 81.8373 27.1675C83.0541 27.1675 84.0707 26.7461 84.8889 25.9034C85.7071 25.0613 86.1155 23.9921 86.1155 22.6958C86.1155 21.3994 85.7064 20.3303 84.8889 19.4882C84.0713 18.6462 83.0535 18.2248 81.8373 18.2248C80.6211 18.2248 79.6087 18.6462 78.8016 19.4882C77.9938 20.331 77.5903 21.4002 77.5903 22.6958C77.5903 23.9914 77.9938 25.0613 78.8016 25.9034Z" fill="#FFFFFF"/>
<path d="M96.8574 26.8758H103.841V30.7964H91.4381V28.0138L98.0701 18.5165H91.747V14.5959H103.533V17.3735L96.8574 26.8758Z" fill="#FFFFFF"/>
<path d="M108.734 12.6517C108.063 12.6517 107.481 12.3981 106.988 11.89C106.495 11.3826 106.25 10.7835 106.25 10.092C106.25 9.40046 106.496 8.79564 106.988 8.27753C107.481 7.75942 108.063 7.5 108.734 7.5C109.406 7.5 110.018 7.75942 110.511 8.27753C111.004 8.79636 111.25 9.40118 111.25 10.092C111.25 10.7828 111.004 11.3826 110.511 11.89C110.018 12.3981 109.426 12.6517 108.734 12.6517ZM106.721 30.7964V14.5959H110.779V30.7964H106.721Z" fill="#FFFFFF"/>
</svg>
